<?xml version="1.0" encoding="UTF-8"?>
<svg xmlns="http://www.w3.org/2000/svg" version="1.1" viewBox="0 0 301.74 89.29">
  <defs>
    <style>
      .cls-1 {
        font-family: Arial-BoldItalicMT, Arial;
        font-weight: 700;
      }

      .cls-1, .cls-2, .cls-3, .cls-4 {
        fill: #fff;
      }

      .cls-1, .cls-3 {
        font-size: 72px;
        font-style: italic;
      }

      .cls-5 {
        stroke-width: 1.5px;
      }

      .cls-5, .cls-2 {
        stroke: #fff;
        stroke-miterlimit: 10;
      }

      .cls-5, .cls-6 {
        fill: #26115a;
      }

      .cls-2 {
        stroke-width: 2px;
      }

      .cls-3 {
        font-family: Arial-ItalicMT, Arial;
      }

      .cls-7 {
        fill: #440cdc;
      }
    </style>
  </defs>
  <!-- Generator: Adobe Illustrator 28.6.0, SVG Export Plug-In . SVG Version: 1.2.0 Build 709)  -->
  <g>
    <g id="_图层_1" data-name="图层_1">
      <polygon class="cls-6" points="177.91 89.29 0 89.29 0 7.97 194.76 7.97 177.91 89.29"/>
      <polygon class="cls-7" points="205.51 .12 301.74 0 301.74 81.26 188.76 81.29 205.51 .12"/>
      <g>
        <text class="cls-3" transform="translate(7.43 72.45)"><tspan x="0" y="0" xml:space="preserve">D    P</tspan></text>
        <line class="cls-2" x1="31.52" y1="34.29" x2="41.58" y2="46.43"/>
        <line class="cls-2" x1="26.83" y1="57.03" x2="42.07" y2="47.01"/>
        <line class="cls-2" x1="26.83" y1="57.03" x2="32.01" y2="34.87"/>
        <text class="cls-3" transform="translate(57.95 68.19)"><tspan x="0" y="0">ee</tspan></text>
        <rect class="cls-4" x="51.77" y="46.23" width="103.95" height="4.89"/>
        <circle class="cls-5" cx="26.83" cy="57.03" r="3.69"/>
        <line class="cls-2" x1="44.61" y1="47.36" x2="57.47" y2="47.36"/>
        <circle class="cls-5" cx="42.07" cy="47.01" r="3.69"/>
        <line class="cls-2" x1="19.96" y1="34.87" x2="32.82" y2="34.87"/>
        <circle class="cls-5" cx="32.01" cy="34.87" r="3.69"/>
      </g>
      <text class="cls-1" transform="translate(192.09 65.95)"><tspan x="0" y="0">TB</tspan></text>
      <rect class="cls-4" x="235.57" y="14.37" width="33.61" height="8.63"/>
      <circle class="cls-5" cx="89.97" cy="58.03" r="3.69"/>
      <circle class="cls-5" cx="129.89" cy="58.03" r="3.69"/>
      <circle class="cls-5" cx="145.84" cy="72.45" r="3.69"/>
    </g>
  </g>
</svg>